<?xml version="1.0" standalone="no"?><!DOCTYPE svg PUBLIC "-//W3C//DTD SVG 1.1//EN" "http://www.w3.org/Graphics/SVG/1.1/DTD/svg11.dtd"><svg t="1509613583244" class="icon" style="" viewBox="0 0 1024 1024" version="1.1" xmlns="http://www.w3.org/2000/svg" p-id="1913" xmlns:xlink="http://www.w3.org/1999/xlink" width="200" height="200"><defs><style type="text/css"></style></defs><path d="M510.649236 63.481823c-247.367901 0-447.904193 200.538339-447.904193 447.912379 0 247.37097 200.535269 447.909309 447.904193 447.909309 247.37404 0 447.907263-200.538339 447.907263-447.909309C958.556499 264.020162 758.0243 63.481823 510.649236 63.481823zM758.562559 511.159866c0 22.63451-18.348903 40.983413-40.983413 40.983413L551.799448 552.143279l0 165.779697c0 22.63451-18.348903 40.983413-40.983413 40.983413l-0.324388 0c-22.63451 0-40.983413-18.348903-40.983413-40.983413L469.508233 552.143279 303.728536 552.143279c-22.63451 0-40.983413-18.348903-40.983413-40.983413l0-0.324388c0-22.63451 18.348903-40.983413 40.983413-40.983413l165.779697 0L469.508233 304.072367c0-22.63451 18.348903-40.983413 40.983413-40.983413l0.324388 0c22.63451 0 40.983413 18.348903 40.983413 40.983413l0 165.779697 165.779697 0c22.63451 0 40.983413 18.348903 40.983413 40.983413L758.562559 511.159866z" p-id="1914" fill="#338FFF"></path></svg>