<?xml version="1.0" standalone="no"?><!DOCTYPE svg PUBLIC "-//W3C//DTD SVG 1.1//EN" "http://www.w3.org/Graphics/SVG/1.1/DTD/svg11.dtd"><svg t="1509075505111" class="icon" style="" viewBox="0 0 1024 1024" version="1.1" xmlns="http://www.w3.org/2000/svg" p-id="1599" xmlns:xlink="http://www.w3.org/1999/xlink" width="200" height="200"><defs><style type="text/css"></style></defs><path d="M1023.232 484.224l-150.528 0C863.488 300.928 721.536 152.32 539.904 134.4L539.904 2.944 484.096 2.944l0 130.496C293.632 142.848 141.248 294.656 131.776 484.224L0.768 484.224l0 55.552 131.968 0c18.048 181.056 167.104 323.136 351.424 332.288l0 148.992 55.744 0L539.904 871.04c175.488-17.28 313.408-156.608 331.136-331.264l152.256 0L1023.296 484.224zM539.904 191.808c150.656 17.792 268.032 140.032 277.12 292.48L632 484.288C627.968 431.616 590.208 388.608 539.904 376.704L539.904 191.808zM484.096 189.952l0 186.752c-50.304 11.904-88.064 54.912-92.16 107.584L188.48 484.288C197.952 325.568 324.672 199.296 484.096 189.952zM484.096 815.552c-153.152-9.024-275.904-126.016-293.824-275.776l210.56 0c14.784 34.88 45.44 61.632 83.264 70.528L484.096 815.552zM539.904 813.696 539.904 610.304c37.824-9.024 68.416-35.648 83.264-70.528l192.128 0C798.08 683.456 684.352 796.672 539.904 813.696z" p-id="1600" fill="#1afa29"></path></svg>