<?xml version="1.0" standalone="no"?><!DOCTYPE svg PUBLIC "-//W3C//DTD SVG 1.1//EN" "http://www.w3.org/Graphics/SVG/1.1/DTD/svg11.dtd"><svg t="1509612356416" class="icon" style="" viewBox="0 0 1024 1024" version="1.1" xmlns="http://www.w3.org/2000/svg" p-id="3534" xmlns:xlink="http://www.w3.org/1999/xlink" width="200" height="200"><defs><style type="text/css"></style></defs><path d="M512 512m-462.262857 0a462.262857 462.262857 0 1 0 924.525714 0 462.262857 462.262857 0 1 0-924.525714 0Z" fill="#F35959" p-id="3535"></path><path d="M512 0C228.205714 0 0 228.205714 0 512S228.205714 1024 512 1024 1024 795.794286 1024 512 795.794286 0 512 0z m0 965.485714C263.314286 965.485714 58.514286 760.685714 58.514286 512S263.314286 58.514286 512 58.514286 965.485714 263.314286 965.485714 512 760.685714 965.485714 512 965.485714z" fill="#FFFFFF" p-id="3536"></path><path d="M716.8 468.114286h-409.6c-23.405714 0-43.885714 20.48-43.885714 43.885714s20.48 43.885714 43.885714 43.885714h409.6c23.405714 0 43.885714-20.48 43.885714-43.885714s-20.48-43.885714-43.885714-43.885714z" fill="#FFFFFF" p-id="3537"></path></svg>