<?xml version="1.0" encoding="iso-8859-1"?>
<!-- Generator: Adobe Illustrator 18.0.0, SVG Export Plug-In . SVG Version: 6.00 Build 0)  -->
<!DOCTYPE svg PUBLIC "-//W3C//DTD SVG 1.1//EN" "http://www.w3.org/Graphics/SVG/1.1/DTD/svg11.dtd">
<svg version="1.1" id="Capa_1" xmlns="http://www.w3.org/2000/svg" xmlns:xlink="http://www.w3.org/1999/xlink" x="0px" y="0px"
	 viewBox="0 0 25.993 25.993" style="enable-background:new 0 0 25.993 25.993;" xml:space="preserve">
<g id="search">
	<g>
		<path style="fill-rule:evenodd;clip-rule:evenodd;" d="M25.714,24.368l-6.295-6.295C21.028,16.16,22,13.695,22,11
			c0-6.075-4.925-11-11-11S0,4.925,0,11s4.925,11,11,11c2.695,0,5.16-0.972,7.073-2.581l6.295,6.295
			c0.372,0.372,0.974,0.372,1.346,0C26.086,25.342,26.086,24.74,25.714,24.368z M11,20c-4.971,0-9-4.029-9-9c0-4.971,4.029-9,9-9
			c4.971,0,9,4.029,9,9C20,15.971,15.971,20,11,20z"/>
	</g>
</g>
<g>
</g>
<g>
</g>
<g>
</g>
<g>
</g>
<g>
</g>
<g>
</g>
<g>
</g>
<g>
</g>
<g>
</g>
<g>
</g>
<g>
</g>
<g>
</g>
<g>
</g>
<g>
</g>
<g>
</g>
</svg>
