<?xml version="1.0" standalone="no"?><!DOCTYPE svg PUBLIC "-//W3C//DTD SVG 1.1//EN" "http://www.w3.org/Graphics/SVG/1.1/DTD/svg11.dtd"><svg t="1509810818650" class="icon" style="" viewBox="0 0 1024 1024" version="1.1" xmlns="http://www.w3.org/2000/svg" p-id="6036" xmlns:xlink="http://www.w3.org/1999/xlink" width="200" height="200"><defs><style type="text/css"></style></defs><path d="M512.186753 66.603931c-246.400876 0-446.14206 199.73402-446.14206 446.14206 0 246.39269 199.741183 446.141036 446.14206 446.141036 246.39269 0 446.141036-199.748347 446.141036-446.141036C958.328813 266.337951 758.580466 66.603931 512.186753 66.603931zM285.052686 339.215772l38.458917-0.284479-38.284955 0 0-51.427276 218.919988 0 0 51.427276L337.319074 338.931293l0 308.98833-52.266387-0.048095L285.052686 339.215772zM754.127038 699.31313 285.163203 699.31313l0-51.346435 416.85606 0 0-92.778056 52.107775 0L754.127038 699.31313zM639.716288 554.952254l0-91.431386c0 0-148.228973-24.128537-249.243621 90.465384 0 0 14.646582-186.029904 249.236458-184.445826l0-92.048439 156.38677 138.722458L639.716288 554.952254z" p-id="6037" fill="#346CFF"></path></svg>