<?xml version="1.0" standalone="no"?><!DOCTYPE svg PUBLIC "-//W3C//DTD SVG 1.1//EN" "http://www.w3.org/Graphics/SVG/1.1/DTD/svg11.dtd"><svg t="1510646627890" class="icon" style="" viewBox="0 0 1024 1024" version="1.1" xmlns="http://www.w3.org/2000/svg" p-id="5637" xmlns:xlink="http://www.w3.org/1999/xlink" width="200" height="200"><defs><style type="text/css"></style></defs><path d="M881.471488 725.793792c0 137.894912-63.214592 137.614336-368.458752 137.614336-305.22368 0-368.439296 0.280576-368.439296-137.614336 0-150.503424 164.959232-450.78528 368.439296-450.78528C716.50816 275.008512 881.471488 575.291392 881.471488 725.793792zM514.089984 339.546112c-86.46144 0-156.545024 70.501376-156.545024 157.47072 0 86.979584 70.083584 157.47072 156.545024 157.47072 86.449152 0 156.534784-70.491136 156.534784-157.47072C670.625792 410.047488 600.539136 339.546112 514.089984 339.546112zM185.974784 455.462912c64.176128-103.3472 175.115264-213.604352 326.268928-213.604352 151.114752 0 269.262848 119.320576 322.808832 212.68992 27.672576 46.332928 80.812032 41.427968 103.973888 0 14.884864-31.0016 61.395968-290.686976-426.78272-290.686976C18.5856 164.52096 69.59616 432.172032 86.929408 454.549504 117.630976 501.500928 175.473664 477.563904 185.974784 455.462912z" p-id="5638" fill="#00ff00"></path></svg>